<svg width="695" height="193" viewBox="0 0 695 193" fill="none" xmlns="http://www.w3.org/2000/svg">
<g clip-path="url(#clip0)">
<path d="M201.391 65.0651H187.17C186.53 65.0876 185.892 64.9809 185.294 64.7514C184.695 64.5218 184.15 64.1742 183.689 63.7292C183.228 63.2842 182.861 62.7509 182.611 62.1611C182.36 61.5714 182.231 60.9372 182.231 60.2965C182.231 59.6558 182.36 59.0217 182.611 58.4319C182.861 57.8422 183.228 57.3089 183.689 56.8639C184.15 56.4189 184.695 56.0712 185.294 55.8417C185.892 55.6122 186.53 55.5055 187.17 55.528H226.078C227.313 55.5714 228.484 56.0928 229.343 56.9823C230.202 57.8719 230.682 59.0601 230.682 60.2965C230.682 61.533 230.202 62.7212 229.343 63.6107C228.484 64.5003 227.313 65.0217 226.078 65.0651H211.769V109.409C211.769 110.785 211.222 112.105 210.249 113.078C209.276 114.051 207.956 114.598 206.58 114.598C205.204 114.598 203.884 114.051 202.911 113.078C201.937 112.105 201.391 110.785 201.391 109.409V65.0651Z" fill="#2F6DB4"/>
<path d="M228.084 92.2584V92.0937C228.084 79.456 238.127 68.9952 251.682 68.9952C265.238 68.9952 275.216 79.2913 275.216 91.9407V92.1113C275.216 104.661 265.173 115.116 251.535 115.116C238.044 115.098 228.084 104.808 228.084 92.2584ZM265.067 92.2584V92.0937C265.067 84.3098 259.46 77.8675 251.535 77.8675C243.381 77.8675 238.209 84.251 238.209 91.8995V92.0701C238.209 99.7657 243.816 106.19 251.682 106.19C259.854 106.232 265.067 99.8716 265.067 92.2584Z" fill="#2F6DB4"/>
<path d="M293.267 110.332L281.388 76.6966C281.082 75.8642 280.912 74.9883 280.882 74.102C280.886 73.4651 281.019 72.8355 281.272 72.2509C281.524 71.6662 281.892 71.1385 282.354 70.6992C282.815 70.2599 283.36 69.9181 283.956 69.694C284.552 69.47 285.188 69.3684 285.824 69.3953C288.331 69.3953 290.007 71.0662 290.76 73.4078L299.274 100.207L307.893 73.4313C308.646 71.0779 310.488 69.4188 313.082 69.4188H313.671C316.265 69.4188 318.107 71.0897 318.86 73.4313L327.561 100.207L336.181 73.349C336.851 71.1721 338.44 69.4188 341.117 69.4188C341.74 69.411 342.358 69.527 342.936 69.7601C343.514 69.9931 344.04 70.3386 344.483 70.7764C344.926 71.2143 345.278 71.7358 345.519 72.3107C345.759 72.8856 345.883 73.5025 345.882 74.1256C345.849 74.8945 345.709 75.655 345.465 76.3848L333.421 110.356C332.333 113.451 330.238 114.874 327.814 114.874H327.514C325.002 114.874 322.913 113.451 321.99 110.521L313.347 84.251L304.645 110.521C303.728 113.462 301.633 114.874 299.209 114.874H298.874C296.361 114.845 294.273 113.427 293.267 110.332Z" fill="#2F6DB4"/>
<path d="M355.437 74.5198C355.424 73.8527 355.544 73.1897 355.791 72.5698C356.038 71.9499 356.406 71.3857 356.874 70.9103C357.342 70.435 357.901 70.0581 358.517 69.802C359.133 69.5458 359.794 69.4156 360.461 69.4188C361.132 69.4149 361.797 69.5442 362.418 69.7992C363.039 70.0542 363.603 70.4297 364.077 70.9042C364.552 71.3786 364.927 71.9425 365.182 72.5631C365.437 73.1838 365.566 73.8488 365.562 74.5198V76.6967C368.41 72.5783 372.511 68.9952 379.371 68.9952C389.326 68.9952 395.097 75.6965 395.097 85.8984V109.497C395.109 110.159 394.988 110.817 394.74 111.432C394.492 112.046 394.123 112.604 393.654 113.072C393.186 113.541 392.628 113.91 392.013 114.158C391.399 114.406 390.741 114.527 390.079 114.515C389.412 114.529 388.75 114.409 388.13 114.162C387.511 113.916 386.947 113.548 386.471 113.08C385.996 112.613 385.619 112.055 385.363 111.44C385.106 110.824 384.975 110.164 384.978 109.497V88.9931C384.978 82.1389 381.542 78.2028 375.523 78.2028C369.64 78.2028 365.562 82.3213 365.562 89.1637V109.497C365.518 110.81 364.965 112.054 364.02 112.967C363.076 113.88 361.813 114.39 360.5 114.39C359.186 114.39 357.924 113.88 356.979 112.967C356.035 112.054 355.482 110.81 355.437 109.497V74.5198Z" fill="#2F6DB4"/>
<path d="M405.646 109.662C405.034 109.305 404.53 108.788 404.191 108.165C403.852 107.543 403.69 106.84 403.722 106.132C403.714 105.588 403.814 105.049 404.018 104.545C404.222 104.042 404.525 103.584 404.909 103.2C405.293 102.816 405.751 102.513 406.254 102.309C406.758 102.105 407.298 102.004 407.841 102.013C408.603 102.017 409.351 102.22 410.012 102.601C414.277 105.443 418.713 106.867 422.732 106.867C427.08 106.867 429.592 105.025 429.592 102.101V101.931C429.592 98.5007 424.885 97.3299 419.719 95.7355C413.195 93.894 405.911 91.2229 405.911 82.7919V82.6272C405.911 74.2609 412.859 69.1541 421.643 69.1541C426.495 69.2286 431.258 70.4632 435.534 72.7547C436.258 73.1049 436.869 73.6512 437.297 74.3315C437.726 75.0117 437.955 75.7986 437.958 76.6025C437.964 77.1504 437.859 77.6939 437.65 78.2004C437.441 78.7069 437.132 79.1661 436.742 79.5505C436.351 79.9349 435.887 80.2367 435.378 80.4378C434.868 80.6389 434.323 80.7352 433.775 80.7209C433.073 80.7325 432.381 80.5579 431.769 80.215C428.15 78.3675 424.467 77.1908 421.373 77.1908C417.443 77.1908 415.183 79.0324 415.183 81.5446V81.7093C415.183 84.9747 419.955 86.3161 425.138 87.987C431.61 89.9932 438.864 92.9232 438.864 100.872V101.042C438.864 110.326 431.669 114.927 422.461 114.927C416.457 114.886 410.602 113.053 405.646 109.662V109.662Z" fill="#2F6DB4"/>
<path d="M446.812 92.2584V92.0937C446.812 79.5443 456.52 68.9952 469.823 68.9952C476.765 68.9952 481.537 71.2604 485.302 74.5198C485.797 74.9659 486.194 75.5101 486.467 76.1178C486.741 76.7256 486.885 77.3835 486.891 78.0499C486.889 78.6626 486.766 79.2689 486.527 79.8334C486.289 80.3979 485.94 80.9093 485.502 81.3376C485.064 81.7659 484.545 82.1026 483.975 82.3281C483.405 82.5536 482.796 82.6632 482.184 82.6507C481.098 82.6436 480.043 82.2913 479.171 81.6447C476.577 79.4678 473.729 77.8793 469.717 77.8793C462.374 77.8675 456.95 84.251 456.95 91.8995V92.0701C456.95 99.9363 462.386 106.19 470.17 106.19C474.182 106.19 477.277 104.602 480.042 102.26C480.666 101.699 481.442 101.335 482.272 101.213C483.103 101.091 483.95 101.216 484.71 101.573C485.469 101.931 486.106 102.504 486.541 103.222C486.976 103.939 487.19 104.769 487.155 105.608C487.176 106.211 487.059 106.811 486.812 107.362C486.565 107.912 486.196 108.399 485.731 108.785C481.795 112.55 477.03 115.057 469.664 115.057C456.52 115.098 446.812 104.808 446.812 92.2584Z" fill="#2F6DB4"/>
<path d="M497.016 74.5198C497.003 73.8527 497.123 73.1897 497.37 72.5698C497.617 71.9499 497.985 71.3857 498.453 70.9103C498.922 70.435 499.48 70.0581 500.096 69.802C500.712 69.5458 501.373 69.4156 502.041 69.4188C502.712 69.4149 503.377 69.5442 503.997 69.7992C504.618 70.0541 505.182 70.4297 505.656 70.9042C506.131 71.3786 506.506 71.9425 506.761 72.5631C507.016 73.1838 507.145 73.8488 507.142 74.5198V79.0383C509.495 73.5196 513.837 69.3306 518.267 69.3306C521.45 69.3306 523.292 71.4251 523.292 74.355C523.33 75.5152 522.942 76.6493 522.202 77.5434C521.462 78.4376 520.42 79.03 519.273 79.2089C512.078 80.4621 507.142 85.9866 507.142 96.4415V109.497C507.137 110.162 507.001 110.819 506.742 111.431C506.483 112.043 506.106 112.598 505.632 113.064C505.158 113.531 504.597 113.899 503.981 114.148C503.365 114.397 502.705 114.522 502.041 114.515C501.38 114.521 500.724 114.395 500.113 114.145C499.501 113.895 498.945 113.525 498.478 113.058C498.01 112.591 497.64 112.036 497.389 111.424C497.138 110.813 497.011 110.158 497.016 109.497V74.5198Z" fill="#2F6DB4"/>
<path d="M531.411 58.0402C531.411 55.022 533.917 53.104 537.182 53.104C540.448 53.104 542.954 55.022 542.954 58.0402V58.5403C542.954 61.5527 540.448 63.5589 537.182 63.5589C533.917 63.5589 531.411 61.5527 531.411 58.5403V58.0402ZM532.164 74.5139C532.15 73.8471 532.269 73.1842 532.515 72.5644C532.761 71.9445 533.129 71.3802 533.597 70.9048C534.065 70.4293 534.623 70.0524 535.239 69.7962C535.854 69.54 536.515 69.4097 537.182 69.413C537.853 69.4091 538.518 69.5383 539.139 69.7933C539.76 70.0483 540.323 70.4238 540.798 70.8983C541.272 71.3727 541.648 71.9366 541.903 72.5573C542.158 73.1779 542.287 73.843 542.283 74.5139V109.491C542.283 110.833 541.75 112.12 540.801 113.069C539.852 114.018 538.565 114.551 537.223 114.551C535.882 114.551 534.595 114.018 533.646 113.069C532.697 112.12 532.164 110.833 532.164 109.491V74.5139Z" fill="#2F6DB4"/>
<path d="M555.503 74.5198C555.49 73.8527 555.61 73.1897 555.857 72.5698C556.104 71.9499 556.472 71.3857 556.941 70.9103C557.409 70.435 557.967 70.0581 558.583 69.802C559.2 69.5458 559.861 69.4156 560.528 69.4188C561.199 69.4149 561.864 69.5442 562.485 69.7992C563.105 70.0542 563.669 70.4297 564.144 70.9042C564.618 71.3786 564.994 71.9425 565.249 72.5631C565.503 73.1838 565.633 73.8488 565.629 74.5198V77.285C568.894 72.6783 573.495 68.9952 580.69 68.9952C591.069 68.9952 601.188 77.1968 601.188 91.9407V92.1113C601.188 106.755 591.151 115.057 580.69 115.057C573.33 115.057 568.724 111.38 565.629 107.279V122.923C565.584 124.236 565.031 125.48 564.087 126.393C563.142 127.306 561.88 127.816 560.566 127.816C559.253 127.816 557.99 127.306 557.046 126.393C556.101 125.48 555.548 124.236 555.503 122.923V74.5198ZM590.898 92.0937V91.8995C590.898 83.3685 585.127 77.7792 578.266 77.7792C571.406 77.7792 565.382 83.4685 565.382 91.8995V92.0701C565.382 100.519 571.401 106.19 578.266 106.19C585.132 106.19 590.898 100.795 590.898 92.0937Z" fill="#2F6DB4"/>
<path d="M613.744 101.901V78.6206H612.073C611.488 78.6421 610.905 78.5455 610.358 78.3365C609.812 78.1275 609.313 77.8105 608.892 77.4044C608.47 76.9983 608.135 76.5113 607.906 75.9728C607.677 75.4342 607.559 74.855 607.559 74.2698C607.559 73.6845 607.677 73.1053 607.906 72.5667C608.135 72.0282 608.47 71.5413 608.892 71.1351C609.313 70.729 609.812 70.412 610.358 70.203C610.905 69.994 611.488 69.8974 612.073 69.9189H613.744V62.3881C613.789 61.0753 614.342 59.8312 615.286 58.9183C616.231 58.0054 617.493 57.4951 618.807 57.4951C620.12 57.4951 621.383 58.0054 622.327 58.9183C623.272 59.8312 623.825 61.0753 623.869 62.3881V69.9189H631.818C632.403 69.8974 632.986 69.994 633.533 70.203C634.079 70.412 634.578 70.729 634.999 71.1351C635.421 71.5413 635.756 72.0282 635.985 72.5667C636.214 73.1053 636.332 73.6845 636.332 74.2698C636.332 74.855 636.214 75.4342 635.985 75.9728C635.756 76.5113 635.421 76.9983 634.999 77.4044C634.578 77.8105 634.079 78.1275 633.533 78.3365C632.986 78.5455 632.403 78.6421 631.818 78.6206H623.869V100.295C623.869 104.225 625.876 105.814 629.306 105.814C630.147 105.774 630.986 105.689 631.818 105.561C632.935 105.561 634.008 105.999 634.805 106.781C635.603 107.563 636.062 108.627 636.083 109.744C636.067 110.589 635.805 111.411 635.33 112.11C634.854 112.808 634.186 113.354 633.406 113.68C631.179 114.477 628.829 114.875 626.464 114.857C619.016 114.845 613.744 111.586 613.744 101.901Z" fill="#2F6DB4"/>
<path d="M149.469 82.7331H98.0067L147.528 16.2619L143.068 12.9377L102.702 67.1184L101.36 66.1241L90.6818 80.4503L48.1033 29.4526L43.8319 33.0179L85.3338 82.7331H11.8201V88.2929H84.8396L48.521 137.031L52.9807 140.356L90.9289 89.4285L132.054 138.685L136.326 135.119L97.2242 88.2929H149.469V82.7331Z" fill="#683593"/>
<path d="M58.7108 43.2375C56.4949 45.0877 53.78 46.2392 50.9096 46.5466C48.0391 46.8539 45.142 46.3032 42.5846 44.964C40.0271 43.6249 37.9242 41.5575 36.5416 39.0233C35.1591 36.489 34.559 33.6018 34.8174 30.7265C35.0757 27.8512 36.1808 25.1172 37.9929 22.8699C39.805 20.6227 42.2428 18.9633 44.998 18.1014C47.7532 17.2396 50.7021 17.2141 53.4717 18.0282C56.2414 18.8422 58.7075 20.4593 60.5583 22.6748C61.7873 24.1462 62.7145 25.8453 63.2868 27.675C63.8592 29.5048 64.0655 31.4293 63.8939 33.3388C63.7224 35.2483 63.1763 37.1053 62.287 38.8037C61.3977 40.5021 60.1825 42.0087 58.7108 43.2375" fill="#FAAC2F"/>
<path d="M145.233 146.451C143.344 148.634 140.85 150.207 138.067 150.973C135.283 151.739 132.335 151.662 129.595 150.752C126.856 149.842 124.447 148.14 122.675 145.862C120.902 143.583 119.845 140.831 119.637 137.951C119.428 135.072 120.079 132.196 121.505 129.686C122.932 127.176 125.07 125.146 127.651 123.851C130.231 122.557 133.138 122.057 136.002 122.414C138.867 122.772 141.561 123.97 143.745 125.859C145.195 127.113 146.383 128.641 147.243 130.354C148.103 132.068 148.616 133.934 148.754 135.846C148.893 137.759 148.653 139.679 148.049 141.499C147.444 143.318 146.488 145.001 145.233 146.451" fill="#2BBFF0"/>
<path d="M119.581 83.4215C119.582 88.7849 117.993 94.0282 115.014 98.4884C112.035 102.948 107.801 106.425 102.846 108.478C97.8909 110.532 92.4384 111.069 87.1779 110.024C81.9173 108.978 77.085 106.396 73.2921 102.604C69.4991 98.8118 66.9159 93.98 65.8691 88.7197C64.8224 83.4594 65.359 78.0068 67.4112 73.0515C69.4635 68.0962 72.9391 63.8608 77.3986 60.8809C81.858 57.901 87.101 56.3105 92.4645 56.3105C99.6553 56.3105 106.552 59.1667 111.637 64.2508C116.722 69.3349 119.58 76.2306 119.581 83.4215" fill="#683593"/>
<path d="M65.3534 138.696C65.3534 141.585 64.497 144.408 62.8924 146.809C61.2878 149.211 59.0072 151.082 56.3389 152.188C53.6706 153.293 50.7345 153.582 47.9018 153.019C45.0692 152.455 42.4672 151.064 40.425 149.022C38.3828 146.98 36.992 144.378 36.4285 141.545C35.8651 138.713 36.1543 135.777 37.2595 133.108C38.3648 130.44 40.2364 128.159 42.6378 126.555C45.0392 124.95 47.8625 124.094 50.7507 124.094C52.6686 124.093 54.5678 124.47 56.3398 125.204C58.1119 125.937 59.722 127.013 61.0781 128.369C62.4342 129.725 63.5098 131.335 64.2434 133.107C64.977 134.879 65.3542 136.779 65.3534 138.696Z" fill="#94C83D"/>
<path d="M29.2233 83.4214C29.2244 86.3101 28.3688 89.1342 26.7647 91.5365C25.1606 93.9388 22.88 95.8114 20.2115 96.9173C17.543 98.0233 14.6063 98.313 11.7731 97.7497C8.93995 97.1865 6.33745 95.7956 4.29487 93.753C2.25229 91.7104 0.861391 89.1079 0.298129 86.2747C-0.265133 83.4415 0.0245464 80.5049 1.13052 77.8364C2.2365 75.1678 4.10908 72.8873 6.51138 71.2831C8.91369 69.679 11.7378 68.8234 14.6264 68.8246C16.5433 68.8246 18.4414 69.2021 20.2124 69.9357C21.9834 70.6693 23.5925 71.7445 24.948 73.0999C26.3034 74.4554 27.3786 76.0645 28.1122 77.8355C28.8457 79.6064 29.2233 81.5045 29.2233 83.4214Z" fill="#3782C4"/>
<path d="M163.884 83.1567C164.348 86.0058 163.958 88.9287 162.762 91.5559C161.565 94.1831 159.617 96.3967 157.163 97.9166C154.709 99.4366 151.859 100.195 148.974 100.095C146.089 99.9956 143.298 99.0428 140.954 97.3573C138.611 95.6718 136.82 93.3293 135.807 90.6258C134.795 87.9224 134.607 84.9795 135.267 82.1692C135.927 79.3589 137.406 76.8075 139.516 74.8375C141.626 72.8675 144.273 71.5673 147.122 71.1015C149.014 70.7921 150.948 70.8585 152.815 71.2969C154.682 71.7353 156.443 72.5372 158 73.6567C159.557 74.7762 160.877 76.1913 161.887 77.8214C162.896 79.4514 163.575 81.2644 163.884 83.1567" fill="#2F6DB4"/>
<path d="M159.901 14.5968C159.901 11.7084 159.044 8.88489 157.439 6.48336C155.834 4.08182 153.553 2.21017 150.885 1.10509C148.216 2.07562e-05 145.28 -0.288824 142.447 0.275103C139.614 0.839029 137.012 2.23039 134.97 4.2732C132.928 6.31602 131.538 8.91853 130.975 11.7516C130.412 14.5846 130.702 17.5209 131.808 20.1891C132.914 22.8573 134.787 25.1375 137.189 26.7414C139.591 28.3452 142.415 29.2007 145.304 29.1995C147.221 29.1995 149.12 28.8218 150.891 28.0879C152.662 27.3539 154.272 26.2782 155.627 24.9221C156.983 23.5661 158.058 21.9562 158.791 20.1846C159.524 18.4129 159.901 16.5142 159.901 14.5968" fill="#CF1C68"/>
</g>
<path d="M218.201 179.295C218.201 179.147 218.164 178.962 218.09 178.776L208.818 154.669C208.67 154.298 208.484 154.038 208.262 153.89C208.039 153.742 207.705 153.668 207.26 153.668H205.295C204.85 153.668 204.516 153.742 204.293 153.89C204.071 154.038 203.885 154.298 203.737 154.706L194.502 178.776C194.428 178.962 194.391 179.11 194.391 179.258C194.391 179.518 194.465 179.703 194.688 179.815C194.91 179.963 195.17 180 195.541 180H197.247C197.988 180 198.471 179.963 198.73 179.815C198.953 179.666 199.175 179.37 199.324 178.887L201.067 174.103H211.303L213.009 178.887C213.157 179.332 213.343 179.629 213.64 179.777C213.899 179.926 214.418 180 215.197 180H217.126C217.83 180 218.201 179.777 218.201 179.295ZM207.149 162.457L209.968 170.283H202.365L205.221 162.42C205.517 161.493 205.74 160.603 205.851 159.75C205.962 158.897 206.037 158.304 206.037 157.933H206.259C206.259 158.192 206.296 158.786 206.444 159.676C206.593 160.566 206.815 161.493 207.149 162.457ZM245.298 155.485C243.963 154.298 242.109 153.668 239.735 153.668H229.424C228.942 153.668 228.609 153.779 228.423 153.964C228.238 154.15 228.163 154.484 228.163 154.929V178.739C228.163 179.221 228.238 179.555 228.423 179.74C228.609 179.926 228.942 180 229.424 180H239.957C242.442 180 244.445 179.37 246.003 178.109C247.523 176.848 248.302 175.067 248.302 172.768C248.302 171.136 247.968 169.764 247.301 168.651C246.633 167.538 245.706 166.797 244.519 166.352V166.203C245.484 165.647 246.188 164.905 246.633 163.978C247.078 163.088 247.301 161.938 247.301 160.603C247.301 158.378 246.633 156.672 245.298 155.485ZM239.179 158.007C241.441 158.007 242.591 159.12 242.591 161.271C242.591 163.459 241.441 164.534 239.179 164.534H232.837V158.007H239.179ZM242.479 169.652C243.073 170.246 243.407 171.136 243.407 172.249C243.407 173.361 243.073 174.214 242.479 174.808C241.886 175.401 240.996 175.661 239.846 175.661H232.837V168.762H239.846C240.996 168.762 241.886 169.059 242.479 169.652ZM253.472 162.383C251.988 163.718 251.247 165.536 251.247 167.835V173.102C251.247 175.438 251.988 177.255 253.472 178.554C254.955 179.889 257.032 180.519 259.777 180.519C262.521 180.519 264.598 179.889 266.082 178.554C267.565 177.255 268.307 175.438 268.307 173.102V167.835C268.307 165.536 267.565 163.718 266.082 162.383C264.598 161.085 262.521 160.418 259.777 160.418C257.032 160.418 254.955 161.085 253.472 162.383ZM262.892 165.239C263.634 165.832 264.005 166.723 264.005 167.835V173.102C264.005 174.214 263.634 175.104 262.892 175.698C262.15 176.328 261.112 176.625 259.777 176.625C258.405 176.625 257.366 176.328 256.624 175.698C255.883 175.104 255.549 174.214 255.549 173.102V167.835C255.549 166.723 255.883 165.832 256.624 165.239C257.366 164.646 258.405 164.312 259.777 164.312C261.112 164.312 262.15 164.646 262.892 165.239ZM273.609 162.383C272.126 163.718 271.384 165.536 271.384 167.835V173.102C271.384 175.438 272.126 177.255 273.609 178.554C275.093 179.889 277.17 180.519 279.914 180.519C282.659 180.519 284.736 179.889 286.219 178.554C287.703 177.255 288.445 175.438 288.445 173.102V167.835C288.445 165.536 287.703 163.718 286.219 162.383C284.736 161.085 282.659 160.418 279.914 160.418C277.17 160.418 275.093 161.085 273.609 162.383ZM283.03 165.239C283.772 165.832 284.142 166.723 284.142 167.835V173.102C284.142 174.214 283.772 175.104 283.03 175.698C282.288 176.328 281.25 176.625 279.914 176.625C278.542 176.625 277.504 176.328 276.762 175.698C276.02 175.104 275.686 174.214 275.686 173.102V167.835C275.686 166.723 276.02 165.832 276.762 165.239C277.504 164.646 278.542 164.312 279.914 164.312C281.25 164.312 282.288 164.646 283.03 165.239ZM308.768 179.481C308.768 179.258 308.656 178.999 308.508 178.628L305.281 172.137C304.873 171.359 304.465 170.728 304.057 170.209C303.612 169.727 303.13 169.356 302.611 169.059L308.137 162.272C308.36 162.012 308.508 161.753 308.508 161.493C308.508 161.122 308.137 160.937 307.395 160.937H305.578C304.91 160.937 304.428 161.011 304.169 161.085C303.909 161.159 303.649 161.419 303.353 161.79L298.383 168.206H298.086H296.454V153.742C296.454 153.297 296.343 153 296.195 152.815C296.009 152.666 295.713 152.555 295.268 152.555H293.339C292.894 152.555 292.56 152.666 292.412 152.815C292.226 153 292.152 153.297 292.152 153.742V178.813C292.152 179.258 292.226 179.592 292.412 179.74C292.56 179.926 292.894 180 293.339 180H295.268C295.713 180 296.009 179.926 296.195 179.74C296.343 179.592 296.454 179.258 296.454 178.813V172.212H298.68C299.421 172.212 300.052 172.36 300.497 172.657C300.942 172.953 301.313 173.398 301.61 174.029L303.909 178.962C304.132 179.407 304.354 179.703 304.577 179.815C304.799 179.963 305.244 180 305.912 180H307.766C308.1 180 308.36 179.963 308.508 179.889C308.656 179.815 308.768 179.666 308.768 179.481ZM336.6 153.964C336.414 153.779 336.08 153.668 335.635 153.668H333.781C333.299 153.668 332.965 153.742 332.743 153.853C332.52 154.001 332.335 154.261 332.112 154.669L324.398 168.54L316.684 154.632C316.461 154.261 316.238 154.001 316.016 153.853C315.793 153.742 315.423 153.668 314.903 153.668H313.234C312.752 153.668 312.418 153.779 312.233 153.964C312.048 154.15 311.973 154.484 311.973 154.929V178.739C311.973 179.221 312.048 179.555 312.233 179.74C312.418 179.926 312.752 180 313.234 180H315.052C315.497 180 315.83 179.926 316.016 179.74C316.201 179.555 316.313 179.221 316.313 178.739V167.464C316.313 165.165 316.016 162.717 315.497 160.047H315.756C316.201 161.456 316.609 162.643 317.054 163.607C317.499 164.571 318.056 165.647 318.76 166.797L322.395 173.176C322.58 173.547 322.766 173.806 322.951 173.918C323.1 174.029 323.396 174.066 323.804 174.066H324.954C325.325 174.066 325.585 174.029 325.77 173.881C325.955 173.769 326.141 173.547 326.363 173.176L329.961 166.834C330.629 165.647 331.222 164.534 331.704 163.496C332.186 162.495 332.668 161.345 333.113 160.047H333.373C332.743 162.865 332.446 165.313 332.446 167.427V178.739C332.446 179.221 332.52 179.555 332.705 179.74C332.891 179.926 333.225 180 333.707 180H335.635C336.08 180 336.414 179.926 336.6 179.74C336.785 179.555 336.896 179.221 336.896 178.739V154.929C336.896 154.484 336.785 154.15 336.6 153.964ZM357.394 161.196C357.246 161.048 356.949 160.937 356.541 160.937H354.502C354.056 160.937 353.76 161.048 353.611 161.196C353.426 161.345 353.352 161.642 353.352 162.049V175.179C352.054 175.549 350.793 175.698 349.569 175.698C348.197 175.698 347.195 175.401 346.528 174.808C345.86 174.214 345.526 173.287 345.526 172.026V162.049C345.526 161.642 345.415 161.345 345.267 161.196C345.081 161.048 344.785 160.937 344.377 160.937H342.374C341.929 160.937 341.632 161.048 341.484 161.196C341.298 161.345 341.224 161.642 341.224 162.049V172.174C341.224 174.585 341.855 176.44 343.116 177.701C344.377 178.999 346.342 179.629 348.938 179.629C350.385 179.629 351.868 179.481 353.352 179.11V180.853C353.352 182.188 353.018 183.19 352.35 183.857C351.683 184.525 350.681 184.859 349.42 184.859C348.456 184.859 347.64 184.71 347.047 184.413C346.453 184.117 345.934 183.635 345.563 182.967C345.192 182.522 344.822 182.262 344.525 182.262C344.265 182.262 343.969 182.374 343.672 182.522L342.263 183.301C341.743 183.598 341.484 183.931 341.484 184.302C341.484 184.562 341.595 184.859 341.817 185.155C343.227 187.529 345.786 188.716 349.532 188.716C352.313 188.716 354.353 188.011 355.688 186.602C356.986 185.192 357.654 183.19 357.654 180.63V162.049C357.654 161.642 357.543 161.345 357.394 161.196ZM364.059 155.337C362.278 156.82 361.425 158.749 361.425 161.159C361.425 163.162 361.908 164.72 362.872 165.795C363.836 166.871 365.023 167.613 366.395 167.984C367.767 168.392 369.473 168.688 371.476 168.911C373.368 169.133 374.814 169.467 375.815 169.912C376.817 170.394 377.336 171.21 377.336 172.36C377.336 173.695 376.817 174.659 375.853 175.29C374.851 175.92 373.368 176.217 371.439 176.217C370.03 176.217 368.806 175.92 367.842 175.327C366.877 174.734 366.136 173.881 365.69 172.768C365.542 172.471 365.431 172.212 365.283 172.063C365.134 171.915 364.949 171.841 364.726 171.841C364.615 171.841 364.392 171.915 364.059 171.989L362.056 172.731C361.722 172.879 361.5 172.99 361.351 173.139C361.203 173.287 361.129 173.435 361.129 173.658C361.129 173.918 361.166 174.14 361.277 174.363C362.056 176.44 363.243 177.997 364.837 178.999C366.432 180.037 368.62 180.519 371.439 180.519C374.777 180.519 377.373 179.815 379.228 178.331C381.082 176.848 382.009 174.845 382.009 172.323C382.009 170.394 381.564 168.911 380.674 167.798C379.784 166.723 378.671 165.944 377.336 165.499C376.001 165.054 374.406 164.72 372.626 164.497C371.217 164.349 370.104 164.201 369.214 163.978C368.324 163.756 367.619 163.422 367.063 162.94C366.469 162.495 366.21 161.827 366.21 160.974C366.21 159.824 366.655 158.971 367.545 158.415C368.435 157.859 369.77 157.562 371.587 157.562C372.997 157.562 374.109 157.821 374.925 158.341C375.741 158.86 376.446 159.639 376.965 160.677C377.262 161.234 377.559 161.493 377.892 161.493C378.041 161.493 378.3 161.456 378.597 161.308L380.637 160.418C381.23 160.158 381.527 159.824 381.527 159.416C381.527 159.194 381.453 158.934 381.342 158.712C380.414 156.82 379.19 155.411 377.707 154.521C376.186 153.631 374.147 153.148 371.587 153.148C368.324 153.148 365.802 153.89 364.059 155.337ZM389.494 152.815C389.308 152.666 389.012 152.555 388.604 152.555H386.601C386.156 152.555 385.859 152.666 385.711 152.815C385.526 153 385.451 153.297 385.451 153.705V178.85C385.451 179.295 385.526 179.592 385.711 179.74C385.859 179.926 386.156 180 386.601 180H388.604C389.012 180 389.308 179.926 389.494 179.74C389.642 179.592 389.754 179.295 389.754 178.85V164.905C389.939 164.794 390.421 164.683 391.163 164.534C391.905 164.423 392.721 164.349 393.574 164.349C394.872 164.349 395.873 164.683 396.541 165.276C397.208 165.907 397.579 166.797 397.579 167.984V178.85C397.579 179.295 397.653 179.592 397.839 179.74C397.987 179.926 398.284 180 398.729 180H400.769C401.177 180 401.473 179.926 401.622 179.74C401.77 179.592 401.881 179.295 401.881 178.85V167.872C401.881 165.499 401.214 163.644 399.953 162.346C398.692 161.085 396.763 160.418 394.167 160.418C392.609 160.418 391.126 160.603 389.754 160.937V153.705C389.754 153.297 389.642 153 389.494 152.815ZM407.618 162.383C406.135 163.718 405.393 165.536 405.393 167.835V173.102C405.393 175.438 406.135 177.255 407.618 178.554C409.102 179.889 411.179 180.519 413.923 180.519C416.668 180.519 418.745 179.889 420.228 178.554C421.712 177.255 422.453 175.438 422.453 173.102V167.835C422.453 165.536 421.712 163.718 420.228 162.383C418.745 161.085 416.668 160.418 413.923 160.418C411.179 160.418 409.102 161.085 407.618 162.383ZM417.039 165.239C417.78 165.832 418.151 166.723 418.151 167.835V173.102C418.151 174.214 417.78 175.104 417.039 175.698C416.297 176.328 415.258 176.625 413.923 176.625C412.551 176.625 411.513 176.328 410.771 175.698C410.029 175.104 409.695 174.214 409.695 173.102V167.835C409.695 166.723 410.029 165.832 410.771 165.239C411.513 164.646 412.551 164.312 413.923 164.312C415.258 164.312 416.297 164.646 417.039 165.239ZM449.979 161.048C449.831 160.974 449.534 160.937 449.163 160.937H447.902C447.198 160.937 446.716 161.011 446.419 161.159C446.122 161.308 445.937 161.642 445.863 162.087L443.786 170.209C443.563 171.173 443.415 171.952 443.341 172.582C443.266 173.25 443.192 173.955 443.155 174.771H442.97C442.896 173.361 442.636 171.841 442.191 170.209L439.706 162.198C439.558 161.716 439.372 161.419 439.15 161.271C438.927 161.122 438.482 161.048 437.814 161.048H436.961C436.294 161.048 435.849 161.122 435.626 161.271C435.404 161.419 435.218 161.716 435.07 162.235L432.622 170.209C432.14 171.915 431.88 173.435 431.806 174.771H431.621C431.547 173.435 431.361 171.952 430.99 170.246L428.913 162.087C428.765 161.642 428.58 161.308 428.32 161.159C428.023 161.011 427.541 160.937 426.874 160.937H425.427C425.019 160.937 424.722 161.011 424.574 161.085C424.426 161.159 424.352 161.308 424.352 161.53C424.352 161.604 424.389 161.827 424.5 162.272L429.396 178.962C429.47 179.37 429.655 179.629 429.915 179.777C430.174 179.926 430.545 180 430.99 180H432.214C432.659 180 432.993 179.926 433.253 179.777C433.475 179.629 433.661 179.37 433.772 178.962L436.479 169.504C436.924 168.021 437.147 166.76 437.184 165.684H437.332C437.369 166.871 437.592 168.132 438 169.504L440.707 178.962C440.782 179.37 440.967 179.629 441.227 179.777C441.486 179.926 441.857 180 442.302 180H443.6C444.045 180 444.379 179.926 444.639 179.777C444.861 179.629 445.047 179.37 445.158 178.962L450.091 162.272C450.165 161.975 450.239 161.716 450.239 161.493C450.239 161.271 450.128 161.122 449.979 161.048ZM477.818 153.964C477.633 153.779 477.299 153.668 476.854 153.668H462.093C461.611 153.668 461.277 153.779 461.091 153.964C460.906 154.15 460.832 154.484 460.832 154.929V178.739C460.832 179.221 460.906 179.555 461.091 179.74C461.277 179.926 461.611 180 462.093 180H477.262C477.707 180 478.041 179.926 478.226 179.74C478.411 179.555 478.523 179.221 478.523 178.739V176.922C478.523 176.477 478.411 176.143 478.226 175.957C478.041 175.772 477.707 175.661 477.262 175.661H465.468V168.837H475.074C475.519 168.837 475.852 168.762 476.038 168.577C476.223 168.392 476.335 168.058 476.335 167.576V165.758C476.335 165.313 476.223 164.979 476.038 164.794C475.852 164.609 475.519 164.497 475.074 164.497H465.468V158.007H476.854C477.299 158.007 477.633 157.933 477.818 157.747C478.004 157.562 478.115 157.228 478.115 156.746V154.929C478.115 154.484 478.004 154.15 477.818 153.964ZM490.543 160.418C487.798 160.418 485.351 160.863 483.274 161.679C482.68 161.938 482.272 162.198 482.087 162.495C481.902 162.791 481.827 163.199 481.827 163.793V178.85C481.827 179.295 481.902 179.592 482.087 179.74C482.235 179.926 482.532 180 482.977 180H484.98C485.388 180 485.684 179.926 485.87 179.74C486.018 179.592 486.13 179.295 486.13 178.85V165.202C486.13 165.054 486.204 164.905 486.389 164.831C487.576 164.534 488.763 164.349 489.95 164.349C491.285 164.349 492.286 164.646 492.954 165.239C493.621 165.832 493.955 166.76 493.955 167.984V178.85C493.955 179.295 494.029 179.592 494.215 179.74C494.363 179.926 494.66 180 495.105 180H497.145C497.553 180 497.849 179.926 497.998 179.74C498.146 179.592 498.257 179.295 498.257 178.85V167.872C498.257 165.499 497.59 163.644 496.329 162.346C495.068 161.085 493.139 160.418 490.543 160.418ZM508.153 156.598C508.005 156.449 507.708 156.338 507.3 156.338H505.26C504.815 156.338 504.519 156.449 504.37 156.598C504.185 156.746 504.111 157.043 504.111 157.451V160.937H501.589C501.144 160.937 500.847 161.048 500.699 161.196C500.513 161.345 500.439 161.642 500.439 162.049V163.756C500.439 164.201 500.513 164.497 500.699 164.646C500.847 164.831 501.144 164.905 501.589 164.905H504.111V172.286C504.111 174.437 504.37 176.106 504.964 177.293C505.52 178.479 506.41 179.295 507.634 179.777C508.821 180.297 510.49 180.519 512.641 180.519C513.049 180.519 513.346 180.445 513.531 180.223C513.679 180.037 513.791 179.703 513.791 179.258V177.552C513.791 177.107 513.679 176.81 513.531 176.662C513.346 176.514 513.049 176.402 512.641 176.402C511.528 176.402 510.675 176.328 510.082 176.106C509.489 175.883 509.081 175.475 508.821 174.882C508.524 174.288 508.413 173.361 508.413 172.137V164.905H512.678C513.086 164.905 513.383 164.831 513.531 164.646C513.679 164.497 513.791 164.201 513.791 163.756V162.049C513.791 161.642 513.679 161.345 513.531 161.196C513.383 161.048 513.086 160.937 512.678 160.937H508.413V157.451C508.413 157.043 508.302 156.746 508.153 156.598ZM518.192 162.495C516.708 163.867 516.004 165.795 516.004 168.317V172.582C516.004 175.03 516.671 176.959 518.081 178.368C519.49 179.815 521.641 180.519 524.534 180.519C528.391 180.519 531.061 179.332 532.545 176.959C532.73 176.662 532.842 176.365 532.842 176.069C532.842 175.698 532.582 175.364 532.1 175.104L530.802 174.4C530.431 174.214 530.171 174.103 529.949 174.103C529.615 174.103 529.281 174.363 528.91 174.845C528.057 176.18 526.611 176.81 524.534 176.81C523.162 176.81 522.123 176.514 521.382 175.883C520.64 175.253 520.306 174.326 520.306 173.102V171.766H531.544C532.137 171.766 532.545 171.655 532.805 171.359C533.027 171.099 533.175 170.691 533.175 170.172V167.984C533.175 165.795 532.434 163.978 530.987 162.569C529.541 161.159 527.427 160.418 524.608 160.418C521.789 160.418 519.675 161.122 518.192 162.495ZM527.761 165.017C528.502 165.684 528.873 166.574 528.873 167.724V168.614H520.306V167.724C520.306 166.574 520.677 165.684 521.419 165.017C522.16 164.386 523.199 164.052 524.608 164.052C525.98 164.052 527.019 164.386 527.761 165.017ZM546.049 160.418H544.862C542.044 160.492 539.744 160.863 537.964 161.53C537.37 161.79 536.962 162.049 536.777 162.346C536.592 162.643 536.517 163.051 536.517 163.644V178.85C536.517 179.295 536.592 179.592 536.777 179.74C536.925 179.926 537.222 180 537.667 180H539.67C540.078 180 540.375 179.926 540.56 179.74C540.708 179.592 540.82 179.295 540.82 178.85V165.239C540.82 165.017 540.931 164.868 541.153 164.794C542.118 164.497 543.305 164.349 544.714 164.349H546.049C546.457 164.349 546.754 164.275 546.939 164.089C547.087 163.941 547.199 163.644 547.199 163.199V161.567C547.199 161.122 547.087 160.826 546.939 160.677C546.754 160.529 546.457 160.418 546.049 160.418ZM558.089 160.418C555.196 160.418 552.785 160.788 550.894 161.493C550.3 161.753 549.893 162.012 549.707 162.309C549.522 162.606 549.447 163.014 549.447 163.607V187.01C549.447 187.455 549.522 187.751 549.707 187.9C549.855 188.085 550.152 188.159 550.597 188.159H552.6C553.008 188.159 553.305 188.085 553.49 187.9C553.638 187.751 553.75 187.455 553.75 187.01V179.852C553.861 179.889 554.306 180 555.085 180.223C555.864 180.445 556.717 180.519 557.644 180.519C560.388 180.519 562.465 179.889 563.838 178.554C565.173 177.218 565.877 175.29 565.877 172.768V167.909C565.877 165.499 565.21 163.644 563.949 162.346C562.651 161.085 560.685 160.418 558.089 160.418ZM560.5 165.276C561.204 165.907 561.575 166.834 561.575 168.021V172.62C561.575 173.955 561.204 174.956 560.537 175.624C559.832 176.291 558.757 176.588 557.31 176.588C556.346 176.588 555.159 176.402 553.75 176.032V165.239C553.75 165.091 553.75 165.017 553.787 164.942C553.824 164.868 553.935 164.831 554.083 164.757C555.048 164.497 556.16 164.349 557.458 164.349C558.794 164.349 559.795 164.683 560.5 165.276ZM579.08 160.418H577.894C575.075 160.492 572.775 160.863 570.995 161.53C570.402 161.79 569.994 162.049 569.808 162.346C569.623 162.643 569.549 163.051 569.549 163.644V178.85C569.549 179.295 569.623 179.592 569.808 179.74C569.957 179.926 570.253 180 570.699 180H572.701C573.109 180 573.406 179.926 573.591 179.74C573.74 179.592 573.851 179.295 573.851 178.85V165.239C573.851 165.017 573.962 164.868 574.185 164.794C575.149 164.497 576.336 164.349 577.745 164.349H579.08C579.488 164.349 579.785 164.275 579.971 164.089C580.119 163.941 580.23 163.644 580.23 163.199V161.567C580.23 161.122 580.119 160.826 579.971 160.677C579.785 160.529 579.488 160.418 579.08 160.418ZM586.667 153.334C586.37 153.037 585.777 152.852 584.924 152.852H584.664C583.774 152.852 583.181 153.037 582.884 153.334C582.55 153.631 582.402 154.224 582.402 155.04V155.374C582.402 156.227 582.55 156.783 582.884 157.08C583.181 157.376 583.774 157.525 584.664 157.525H584.924C585.777 157.525 586.37 157.376 586.667 157.08C586.964 156.783 587.149 156.227 587.149 155.374V155.04C587.149 154.224 586.964 153.631 586.667 153.334ZM586.704 161.196C586.519 161.048 586.222 160.937 585.814 160.937H583.811C583.366 160.937 583.07 161.048 582.921 161.196C582.736 161.345 582.662 161.642 582.662 162.049V178.85C582.662 179.295 582.736 179.592 582.921 179.74C583.07 179.926 583.366 180 583.811 180H585.814C586.222 180 586.519 179.926 586.704 179.74C586.853 179.592 586.964 179.295 586.964 178.85V162.049C586.964 161.642 586.853 161.345 586.704 161.196ZM592.469 162.049C591.134 163.125 590.504 164.571 590.504 166.389C590.504 167.909 590.838 169.059 591.542 169.875C592.21 170.691 593.1 171.21 594.138 171.507C595.177 171.804 596.475 172.026 598.033 172.174C599.664 172.36 600.814 172.582 601.482 172.879C602.149 173.176 602.483 173.695 602.483 174.511C602.483 175.995 601.148 176.699 598.552 176.699C597.402 176.699 596.475 176.551 595.807 176.217C595.103 175.92 594.62 175.401 594.324 174.659C594.175 174.363 594.064 174.177 593.916 174.029C593.767 173.918 593.582 173.843 593.397 173.843C593.211 173.843 593.026 173.881 592.803 173.955L591.134 174.474C590.541 174.696 590.281 175.03 590.281 175.401C590.281 175.624 590.318 175.846 590.43 176.032C590.986 177.515 591.95 178.628 593.322 179.37C594.695 180.148 596.475 180.519 598.626 180.519C601.185 180.519 603.151 179.963 604.56 178.85C605.969 177.738 606.674 176.217 606.674 174.326C606.674 172.953 606.34 171.878 605.747 171.062C605.116 170.246 604.263 169.69 603.225 169.319C602.149 168.985 600.777 168.725 599.108 168.54C597.476 168.392 596.364 168.206 595.733 167.909C595.066 167.65 594.769 167.093 594.769 166.277C594.769 164.942 595.919 164.238 598.255 164.238C599.368 164.238 600.221 164.423 600.814 164.757C601.408 165.091 601.89 165.573 602.261 166.203C602.409 166.5 602.557 166.685 602.706 166.797C602.854 166.908 603.002 166.945 603.151 166.945C603.299 166.945 603.559 166.871 603.855 166.723L605.487 166.055C605.784 165.907 605.969 165.795 606.118 165.647C606.266 165.499 606.34 165.313 606.34 165.091C606.34 164.942 606.266 164.683 606.118 164.386C604.783 161.753 602.112 160.418 598.181 160.418C595.659 160.418 593.767 160.974 592.469 162.049ZM611.455 162.495C609.971 163.867 609.267 165.795 609.267 168.317V172.582C609.267 175.03 609.934 176.959 611.344 178.368C612.753 179.815 614.904 180.519 617.797 180.519C621.654 180.519 624.324 179.332 625.808 176.959C625.993 176.662 626.105 176.365 626.105 176.069C626.105 175.698 625.845 175.364 625.363 175.104L624.065 174.4C623.694 174.214 623.434 174.103 623.212 174.103C622.878 174.103 622.544 174.363 622.173 174.845C621.32 176.18 619.874 176.81 617.797 176.81C616.425 176.81 615.386 176.514 614.644 175.883C613.903 175.253 613.569 174.326 613.569 173.102V171.766H624.807C625.4 171.766 625.808 171.655 626.068 171.359C626.29 171.099 626.438 170.691 626.438 170.172V167.984C626.438 165.795 625.697 163.978 624.25 162.569C622.804 161.159 620.69 160.418 617.871 160.418C615.052 160.418 612.938 161.122 611.455 162.495ZM621.024 165.017C621.765 165.684 622.136 166.574 622.136 167.724V168.614H613.569V167.724C613.569 166.574 613.94 165.684 614.682 165.017C615.423 164.386 616.462 164.052 617.871 164.052C619.243 164.052 620.282 164.386 621.024 165.017Z" fill="#504855"/>
<defs>
<clipPath id="clip0">
<rect width="636.248" height="153.299" fill="white"/>
</clipPath>
</defs>
</svg>
