<svg width="175" height="27" viewBox="0 0 175 27" fill="none" xmlns="http://www.w3.org/2000/svg">
<path d="M40.6989 14.3447V8.67351H44.4241V5.39315H40.6989V2.16838H37.363L36.7514 5.39315H35V8.67351H36.7514V14.7617C36.7514 15.6234 36.807 16.4852 37.0294 17.208C37.5576 19.0984 39.0866 20.3494 41.3661 20.3494C42.5059 20.3494 43.8959 20.0436 44.8411 19.4876L43.6179 16.5686C43.1175 16.8188 42.6449 16.9856 42.0333 16.9856C41.1993 16.9856 40.8657 16.4574 40.7545 15.5956C40.6989 15.1786 40.6989 14.7894 40.6989 14.3447Z" fill="#252836"/>
<path d="M53.7629 5.05955C49.2871 5.05955 46.0901 8.39551 46.0901 12.7045C46.0901 17.0134 49.2871 20.3494 53.7629 20.3494C58.2108 20.3494 61.4078 17.0134 61.4078 12.7045C61.4078 8.39551 58.2108 5.05955 53.7629 5.05955ZM57.3768 12.7045C57.3768 15.0952 55.9312 16.9578 53.7629 16.9578C51.5945 16.9578 50.1211 15.0952 50.1211 12.7045C50.1211 10.3137 51.5945 8.45111 53.7629 8.45111C55.9312 8.45111 57.3768 10.3137 57.3768 12.7045Z" fill="#252836"/>
<path d="M77.37 14.4281H77.2866L74.8958 5.39315H71.4209L68.8911 14.4559H68.8355L66.6671 5.39315H62.4694L66.4725 20.0158H70.7259L73.0611 11.6481H73.1167L75.424 20.0158H79.594L83.7918 5.39315H79.6774L77.37 14.4281Z" fill="#252836"/>
<path d="M89.5837 7.39472L89.2779 5.39315H85.8585V20.0158H89.8061V10.3137C90.5288 9.11831 91.8076 8.45111 92.9752 8.45111C93.837 8.45111 94.5598 8.75691 94.9212 9.4797C95.3382 10.3137 95.366 11.5369 95.366 12.6211V20.0158H99.3136V12.4265C99.3136 10.3415 99.1468 8.45111 98.007 6.97773C97.0896 5.81014 95.6996 5.05955 94.115 5.05955C92.5026 5.05955 90.7512 5.75454 89.5837 7.39472Z" fill="#252836"/>
<path d="M110.994 9.36851L113.162 6.97773C111.8 5.69894 110.049 5.05955 108.103 5.05955C105.434 5.05955 102.876 6.56073 102.876 9.5353C102.876 12.0929 104.795 13.0937 106.546 13.8443C107.992 14.4837 109.326 14.9284 109.326 15.957C109.326 16.8466 108.27 17.2358 107.463 17.2358C106.046 17.2358 105.128 16.5964 104.016 15.5122L101.764 17.8474C103.377 19.4598 105.378 20.3494 107.658 20.3494C110.494 20.3494 113.274 18.876 113.274 15.6512C113.274 12.8713 110.883 11.9261 108.992 11.1477C107.769 10.6473 106.685 10.1747 106.685 9.25731C106.685 8.56231 107.352 8.14532 108.103 8.14532C109.215 8.14532 110.243 8.70131 110.994 9.36851Z" fill="#252836"/>
<path d="M128.103 18.5424L125.99 15.8458C125.156 16.652 124.267 16.9578 123.183 16.9578C121.098 16.9578 119.457 15.1508 119.457 12.7045C119.457 10.3693 121.014 8.45111 123.238 8.45111C124.378 8.45111 125.268 8.86811 126.074 9.6187L128.103 6.86653C126.658 5.67114 124.962 5.05955 122.96 5.05955C118.512 5.05955 115.427 8.45111 115.427 12.7045C115.427 17.2358 118.54 20.3494 122.849 20.3494C124.934 20.3494 126.658 19.8212 128.103 18.5424Z" fill="#252836"/>
<path d="M134.351 7.33913L134.045 5.39315H130.626V20.0158H134.573V10.1191C135.157 9.14611 136.186 8.50671 137.326 8.50671C137.826 8.50671 138.299 8.61791 138.716 8.84031L139.661 5.39315C139.133 5.19855 138.493 5.05955 137.77 5.05955C136.325 5.05955 135.185 5.97694 134.351 7.33913Z" fill="#252836"/>
<path d="M141.024 5.39315V20.0158H144.971V5.39315H141.024ZM141.024 0V3.36377H144.971V0H141.024Z" fill="#252836"/>
<path d="M152.54 7.20013L152.234 5.39315H148.815V26.9657H152.763V18.598C153.875 19.8768 155.626 20.3494 157.044 20.3494C160.991 20.3494 163.883 16.8744 163.883 12.7601C163.883 8.50671 160.964 5.05955 157.072 5.05955C155.57 5.05955 153.597 5.61554 152.54 7.20013ZM152.763 15.3732V10.3971C153.624 8.95151 154.959 8.45111 156.21 8.45111C158.489 8.45111 159.852 10.4805 159.852 12.6489C159.852 14.706 158.684 16.9578 156.154 16.9578C154.903 16.9578 153.736 16.5408 152.763 15.3732Z" fill="#252836"/>
<path d="M170.82 14.3447V8.67351H174.545V5.39315H170.82V2.16838H167.484L166.873 5.39315H165.121V8.67351H166.873V14.7617C166.873 15.6234 166.928 16.4852 167.151 17.208C167.679 19.0984 169.208 20.3494 171.487 20.3494C172.627 20.3494 174.017 20.0436 174.962 19.4876L173.739 16.5686C173.239 16.8188 172.766 16.9856 172.154 16.9856C171.32 16.9856 170.987 16.4574 170.876 15.5956C170.82 15.1786 170.82 14.7894 170.82 14.3447Z" fill="#252836"/>
<path fill-rule="evenodd" clip-rule="evenodd" d="M13.0005 22.0001C15.0804 22.0001 16.7843 20.3754 16.7843 18.3923V13.282V12.3972V8.78943H13.0005C10.9207 8.78943 9.2168 10.4064 9.2168 12.3972V18.3923C9.2168 20.3754 10.9207 22.0001 13.0005 22.0001Z" fill="#E32B79"/>
<path d="M15.1416 3.61287V3.60597C15.1416 1.61445 13.6693 0 11.853 0L3.28885 0C1.47262 0 0.000267029 1.61445 0.000267029 3.60597V3.61287C0.000267029 5.60439 1.47262 7.21884 3.28885 7.21884L11.853 7.21884C13.6693 7.21884 15.1416 5.60439 15.1416 3.61287Z" fill="#5A40E9"/>
<path fill-rule="evenodd" clip-rule="evenodd" d="M21.3919 8.78931C23.9357 8.78931 25.9996 6.82145 25.9996 4.39594C25.9996 1.97043 23.9357 0.00256348 21.3919 0.00256348C18.848 0.00256348 16.7842 1.97043 16.7842 4.39594V8.78931H21.3839H21.3919Z" fill="#F9AC2E"/>
<path d="M22.2164 21.9999C24.3061 21.9999 26.0001 20.3847 26.0001 18.3922C26.0001 16.3997 24.3061 14.7844 22.2164 14.7844C20.1267 14.7844 18.4326 16.3997 18.4326 18.3922C18.4326 20.3847 20.1267 21.9999 22.2164 21.9999Z" fill="#93C73C"/>
</svg>
